<?xml version="1.0" encoding="UTF-8"?>
<svg id="Camada_1" xmlns="http://www.w3.org/2000/svg" version="1.1" viewBox="0 0 409.6 409.6">
  <!-- Generator: Adobe Illustrator 29.4.0, SVG Export Plug-In . SVG Version: 2.1.0 Build 152)  -->
  <defs>
    <style>
      .st0 {
        fill: #fff;
      }
    </style>
  </defs>
  <path class="st0" d="M400,152.1c-1-1.7-5.3-6.1-5.3-7.2,0-.9,4-10.3,4.4-13.6,2.8-25.2-16-47.4-41.4-47.4.3-28.4-29-49.1-55.9-39.1-3.1-33-42.1-48-67.9-27.9-11.7-21.2-45.8-21.4-57.5,0-25.8-20.1-64.7-5-67.9,27.9-26.8-10-56.2,10.7-55.9,39.1-25.4,0-44.3,22.2-41.4,47.4.4,3.3,4.5,12.7,4.4,13.6,0,1.1-4.3,5.5-5.3,7.2-11.1,18.2-7,39.2,7.9,53.6-14.2,21.2-6.7,51,16.9,61.5-12.7,31.6,11.8,63.4,45.5,59.4-1.1,27.8,29.1,49.3,55.1,39.1v38.7c0,1.4,3,4.2,4,5.2h5.6c3.1-.3,8.2-3.9,4.8-6l1.6-1v-31.6c14.1,11,35.4,26.6,53.3,26.7,18.3,0,39.3-15.5,53.7-26.7v32l1.6.5c-3.1,2.6,1.7,5.6,4.8,6h5.6c1-1,4-3.8,4-5.2v-38.7c26,10.2,56.2-11.3,55.1-39.1,33.6,4,58.1-27.8,45.5-59.4,23.6-10.4,31.2-40.3,16.9-61.5,15-14.4,19-35.5,7.9-53.6ZM272.2,342c-12.5,10.2-31.7,23.5-45.5,32-16.6,10.2-26.4,10.2-43,0-13.9-8.5-32.8-21.8-45.5-32-40.4-32.4-41.7-73.1-43.2-121.3-.6-18.7-4.6-55.1,4.9-70.9,4.2-7.1,22.2-21.4,30.1-23.3,27.4-6.7,35.8,25.6,51.4,40.9,19.9,19.4,53.4,18.5,79,22.8,13.5,2.3,30,7.4,42.1,13.8,1.8.9,11.2,6.3,12,7.2,2.8,3.4-.7,28.3,0,34.3-3.5,38.9-11.1,71.1-42.4,96.5ZM374.8,206.8c.9,2.9,4.4,5.3,5.9,7.7,7.5,11.9,5,28-6.2,36.6-4.8,3.7-15.7,5.2-17.2,9.9-1.7,5.3,2.3,7.8,4.2,11.9,9.4,20.2-6.7,42.1-28.7,39.1-5.5-.8-11.6-6.3-16.5-1.7-4.6,4.2-.7,10.1-.5,15.4.6,17.2-14.2,29.9-31.1,28.1-.8,0-2.8-.4-2.7-1.2,0-.9,11.2-9.4,13.2-11.6,23.3-24.6,31.4-62.6,33.9-95.4.8-10.7,1.8-26.3.8-36.8-.5-5.4-4.2-7.3-8.2-10.1-36.8-25.8-70.9-18.9-109.8-30.8-34.7-10.6-33.8-46.7-62.6-54.7-29.2-8.2-66.5,21.5-68.5,50.9-1.8,25.3-1.3,62.6.8,87.9,1.7,20,6,40.1,13.6,58.7-6.2-5.1-10.9.5-17.4,1.4-22,3-38.1-18.9-28.7-39.1,1.8-3.9,5.5-6.2,4.4-11.2-1.2-5.5-12.1-6.6-17-10.2-11.5-8.5-14.3-24.9-6.7-37,2.6-4.1,7.2-5.9,6.2-12-.5-3.4-9.7-8.9-12.6-13-7.1-9.8-6.3-22.9,1.1-32.2,2.3-2.9,6.9-5.5,7.5-9.2.9-5.8-5.6-11.8-6.3-19.1-1.5-14.5,8.6-29.1,23.5-30.7,5.7-.6,12.8,2.9,16.8-1.6,3.8-4.2.6-10.8,1.2-16.4,1.8-17.1,20.6-27.8,36.5-22.1,5.4,1.9,10.3,8.5,16.2,5.3,5.7-3.2,2.3-11,2.5-15.8,1.1-22.5,28-33.4,45.4-19.2,3.9,3.2,5.7,8.9,11.6,8.3,5.9-.6,6.1-8.4,8.6-12.2,8-12.6,27-12.5,34.9,0,2.3,3.6,2.4,9.8,6.7,11.6,6.7,2.9,9.2-4.3,13.4-7.7,17.4-14.2,44.3-3.3,45.4,19.2.2,4.6-3,12.1,2,15.5,6,3.9,11.1-3,16.6-5,15.9-5.7,34.6,5,36.5,22.1.6,5.7-2.9,12.8,1.6,16.8,4.2,3.8,10.8.6,16.4,1.2,15,1.6,25,16.3,23.5,30.7-.7,7.3-7.3,13.3-6.3,19.1.6,4,8.1,8.8,10.5,13.5,6.4,12.7,2.8,23.9-6.9,33.3-4.1,3.9-9.5,4.4-7.2,12Z"/>
  <g>
    <path d="M400,152.1c-1-1.7-5.3-6.1-5.3-7.2,0-.9,4-10.3,4.4-13.6,2.8-25.2-16-47.4-41.4-47.4.3-28.4-29-49.1-55.9-39.1-3.1-33-42.1-48-67.9-27.9-11.7-21.2-45.8-21.4-57.5,0-25.8-20.1-64.7-5-67.9,27.9-26.8-10-56.2,10.7-55.9,39.1-25.4,0-44.3,22.2-41.4,47.4.4,3.3,4.5,12.7,4.4,13.6,0,1.1-4.3,5.5-5.3,7.2-11.1,18.2-7,39.2,7.9,53.6-14.2,21.2-6.7,51,16.9,61.5-12.7,31.6,11.8,63.4,45.5,59.4-1.1,27.8,29.1,49.3,55.1,39.1v38.7c0,1.4,3,4.2,4,5.2h5.6c3.1-.3,8.2-3.9,4.8-6l1.6-1v-31.6c14.1,11,35.4,26.6,53.3,26.7,18.3,0,39.3-15.5,53.7-26.7v32l1.6.5c-3.1,2.6,1.7,5.6,4.8,6h5.6c1-1,4-3.8,4-5.2v-38.7c26,10.2,56.2-11.3,55.1-39.1,33.6,4,58.1-27.8,45.5-59.4,23.6-10.4,31.2-40.3,16.9-61.5,15-14.4,19-35.5,7.9-53.6ZM127.8,353.3c-5,2.8-17.8-1.5-22.3-4.9-10.9-8.1-12.5-21.5-8.8-33.9l9.7,15.4c4.1,5,7.9,10.1,12.6,14.5,2.3,2.2,6.4,4.5,8.4,6.8.6.7,1.8,1.2.4,2ZM272.2,342c-12.5,10.2-31.7,23.5-45.5,32-16.6,10.2-26.4,10.2-43,0-13.9-8.5-32.8-21.8-45.5-32-40.4-32.4-41.7-73.1-43.2-121.3-.6-18.7-4.6-55.1,4.9-70.9,4.2-7.1,22.2-21.4,30.1-23.3,27.4-6.7,35.8,25.6,51.4,40.9,19.9,19.4,53.4,18.5,79,22.8,13.5,2.3,30,7.4,42.1,13.8,1.8.9,11.2,6.3,12,7.2,2.8,3.4-.7,28.3,0,34.3-3.5,38.9-11.1,71.1-42.4,96.5ZM374.8,206.8c.9,2.9,4.4,5.3,5.9,7.7,7.5,11.9,5,28-6.2,36.6-4.8,3.7-15.7,5.2-17.2,9.9-1.7,5.3,2.3,7.8,4.2,11.9,9.4,20.2-6.7,42.1-28.7,39.1-5.5-.8-11.6-6.3-16.5-1.7-4.6,4.2-.7,10.1-.5,15.4.6,17.2-14.2,29.9-31.1,28.1-.8,0-2.8-.4-2.7-1.2,0-.9,11.2-9.4,13.2-11.6,23.3-24.6,31.4-62.6,33.9-95.4.8-10.7,1.8-26.3.8-36.8-.5-5.4-4.2-7.3-8.2-10.1-36.8-25.8-70.9-18.9-109.8-30.8-34.7-10.6-33.8-46.7-62.6-54.7-29.2-8.2-66.5,21.5-68.5,50.9-1.8,25.3-1.3,62.6.8,87.9,1.7,20,6,40.1,13.6,58.7-6.2-5.1-10.9.5-17.4,1.4-22,3-38.1-18.9-28.7-39.1,1.8-3.9,5.5-6.2,4.4-11.2-1.2-5.5-12.1-6.6-17-10.2-11.5-8.5-14.3-24.9-6.7-37,2.6-4.1,7.2-5.9,6.2-12-.5-3.4-9.7-8.9-12.6-13-7.1-9.8-6.3-22.9,1.1-32.2,2.3-2.9,6.9-5.5,7.5-9.2.9-5.8-5.6-11.8-6.3-19.1-1.5-14.5,8.6-29.1,23.5-30.7,5.7-.6,12.8,2.9,16.8-1.6,3.8-4.2.6-10.8,1.2-16.4,1.8-17.1,20.6-27.8,36.5-22.1,5.4,1.9,10.3,8.5,16.2,5.3,5.7-3.2,2.3-11,2.5-15.8,1.1-22.5,28-33.4,45.4-19.2,3.9,3.2,5.7,8.9,11.6,8.3,5.9-.6,6.1-8.4,8.6-12.2,8-12.6,27-12.5,34.9,0,2.3,3.6,2.4,9.8,6.7,11.6,6.7,2.9,9.2-4.3,13.4-7.7,17.4-14.2,44.3-3.3,45.4,19.2.2,4.6-3,12.1,2,15.5,6,3.9,11.1-3,16.6-5,15.9-5.7,34.6,5,36.5,22.1.6,5.7-2.9,12.8,1.6,16.8,4.2,3.8,10.8.6,16.4,1.2,15,1.6,25,16.3,23.5,30.7-.7,7.3-7.3,13.3-6.3,19.1.6,4,8.1,8.8,10.5,13.5,6.4,12.7,2.8,23.9-6.9,33.3-4.1,3.9-9.5,4.4-7.2,12Z"/>
    <path class="st0" d="M314.6,245.5c-3.5,38.9-11.1,71.1-42.4,96.5-12.5,10.2-31.7,23.5-45.5,32-16.6,10.2-26.4,10.2-43,0-13.9-8.5-32.8-21.8-45.5-32-40.4-32.4-41.7-73.1-43.2-121.3-.6-18.7-4.6-55.1,4.9-70.9,4.2-7.1,22.2-21.4,30.1-23.3,27.4-6.7,35.8,25.6,51.4,40.9,19.9,19.4,53.4,18.5,79,22.8,13.5,2.3,30,7.4,42.1,13.8,1.8.9,11.2,6.3,12,7.2,2.8,3.4-.7,28.3,0,34.3Z"/>
    <path class="st0" d="M380.7,214.5c7.5,11.9,5,28-6.2,36.6-4.8,3.7-15.7,5.2-17.2,9.9-1.7,5.3,2.3,7.8,4.2,11.9,9.4,20.2-6.7,42.1-28.7,39.1-5.5-.8-11.6-6.3-16.5-1.7-4.6,4.2-.7,10.1-.5,15.4.6,17.2-14.2,29.9-31.1,28.1-.8,0-2.8-.4-2.7-1.2,0-.9,11.2-9.4,13.2-11.6,23.3-24.6,31.4-62.6,33.9-95.4.8-10.7,1.8-26.3.8-36.8-.5-5.4-4.2-7.3-8.2-10.1-36.8-25.8-70.9-18.9-109.8-30.8-34.7-10.6-33.8-46.7-62.6-54.7-29.2-8.2-66.5,21.5-68.5,50.9-1.8,25.3-1.3,62.6.8,87.9,1.7,20,6,40.1,13.6,58.7-6.2-5.1-10.9.5-17.4,1.4-22,3-38.1-18.9-28.7-39.1,1.8-3.9,5.5-6.2,4.4-11.2-1.2-5.5-12.1-6.6-17-10.2-11.5-8.5-14.3-24.9-6.7-37,2.6-4.1,7.2-5.9,6.2-12-.5-3.4-9.7-8.9-12.6-13-7.1-9.8-6.3-22.9,1.1-32.2,2.3-2.9,6.9-5.5,7.5-9.2.9-5.8-5.6-11.8-6.3-19.1-1.5-14.5,8.6-29.1,23.5-30.7,5.7-.6,12.8,2.9,16.8-1.6,3.8-4.2.6-10.8,1.2-16.4,1.8-17.1,20.6-27.8,36.5-22.1,5.4,1.9,10.3,8.5,16.2,5.3,5.7-3.2,2.3-11,2.5-15.8,1.1-22.5,28-33.4,45.4-19.2,3.9,3.2,5.7,8.9,11.6,8.3,5.9-.6,6.1-8.4,8.6-12.2,8-12.6,27-12.5,34.9,0,2.3,3.6,2.4,9.8,6.7,11.6,6.7,2.9,9.2-4.3,13.4-7.7,17.4-14.2,44.3-3.3,45.4,19.2.2,4.6-3,12.1,2,15.5,6,3.9,11.1-3,16.6-5,15.9-5.7,34.6,5,36.5,22.1.6,5.7-2.9,12.8,1.6,16.8,4.2,3.8,10.8.6,16.4,1.2,15,1.6,25,16.3,23.5,30.7-.7,7.3-7.3,13.3-6.3,19.1.6,4,8.1,8.8,10.5,13.5,6.4,12.7,2.8,23.9-6.9,33.3-4.1,3.9-9.5,4.4-7.2,12,.9,2.9,4.4,5.3,5.9,7.7Z"/>
  </g>
</svg>