<?xml version="1.0" encoding="UTF-8"?>
<svg id="Camada_1" xmlns="http://www.w3.org/2000/svg" version="1.1" viewBox="0 0 384 384">
  <!-- Generator: Adobe Illustrator 29.4.0, SVG Export Plug-In . SVG Version: 2.1.0 Build 152)  -->
  <defs>
    <style>
      .st0 {
        fill: #fff;
      }
    </style>
  </defs>
  <g>
    <path d="M193.4,201.3c-6.7.6-22.1-5.3-19.6-13.6.3-.9,2.5-3.1,3.4-3.4,6.8-2,9.4,8.7,19.1,4.2,3.2-1.5,4.1-5.3,9.1-4.3,1.1.2,3.3,2,3.8,3,3.1,7.4-9.8,13.6-15.8,14.1Z"/>
    <path d="M153.1,187.1c-5.3,4.9-14.7,5.1-20.5,1.1-4.7-3.3-6.6-10.8-.2-12.2,5.5-1.2,6.6,3.8,10.2,3.6,2.5-.2,3.7-2.8,5.6-3.4,6.8-2.2,10.4,5.8,4.9,10.9Z"/>
    <path d="M253,186.1c-7.9,9.1-28.6,4.3-25.3-6.6.3-.9,2.5-3.1,3.4-3.4,4.8-1.5,6.6,3.6,10.3,3.5,2.4,0,3.6-2.7,5.6-3.3,6.5-2.1,10.7,4.5,6.1,9.8Z"/>
  </g>
  <path d="M357.8,82c7.7-8,22.7-12.4,19.9-25.9-1.7-8-15.4-14.5-21.4-21.3-5-5.6-8.4-14.9-16.4-16.5-14-2.9-17,11-24.7,18.8-1.2,1.2-9,7.7-10,7.7-.5,0-6.1-1.7-6.9-2.1-6.1-2.6-9.6-13.2-17.8-18.1-9-5.4-21.2-3.6-26.3-7.3-8.5-6.2-12.4-11.7-24.7-12-5.2-.1-11.8,2.8-15.7,2.3-3-.4-7.8-4.1-11.3-5.2-6.7-2.1-14.9-2.2-21.7,0-3.4,1.1-8.2,4.8-11.2,5.2-3.6.5-9.2-2.1-13.4-2.2-6.5-.2-13.8,2-19.3,5.4-3.6,2.2-7.7,7.6-11,8.5-5.9,1.5-11.1.2-18,3-5.7,2.3-16,13.7-14.6,18.3,1.4,4.5,11.1-3.1,15.3-5.6,7.9-4.8,14.6-2.1,22.5-5.2,7.1-2.8,10.4-10.4,18.7-12,8-1.5,14.8,2.2,22.8,1.1,6.1-.8,11.4-6.6,18.8-6.7,7.9-.1,13.1,5.8,19.5,6.7,8,1.1,14.8-2.6,22.8-1.1,8.3,1.6,11.6,9.2,18.7,12,5.6,2.2,10.2,1.3,15.6,2.4,15.3,3.1,13.7,19.4,28.6,22-4.4,14,6.5,16.9,14.6,23.9,7.2,6.2,13.8,19.3,21.3,22.1,2.9,1.1,4-1.2,4.5,3.7,1.4,14.7,1.2,11.2,9.3,22.2,10.4,14-.3,21.4,4.3,34.6,1.8,5,4.6,7.6,5.1,13.6.8,10.1-2.7,11-5.3,18.7-4,12.1,4.8,19.5-2.3,32.1-2.4,4.2-7.2,7.1-9.2,11.7-3.3,7.4-.4,14.5-4.8,22.1-4.4,7.4-12.3,9-16.8,15.4-4,5.7-3.5,12.9-9.1,18.6-1.7,1.7-9.5,6.8-11.5,5.7-.9-.5-5-6.5-6.3-7.9-3.2-3.5-7-7.3-10.5-10.5-1.7-1.6-12.8-9.3-11.6-11.1,15.8-11.4,28.4-28.5,35.9-46.5,29.7,7,54.5-23,41.8-51.2-6.5-14.4-22.5-22.8-38.1-21-3-4.3-7.1-7.3-9.9-11.9-8-12.9-5.3-30-23.3-35.1-23-6.5-37.1,10.6-57.4,16.2-19.2,5.3-40.2,4.5-58.8-2.6-17.7-6.8-27.2-19.1-49-13.9-19.2,4.6-16.5,21-24.5,34.6-2.7,4.7-5.2,6.9-8.8,10.7-.6.6-1.1,2.1-1.2,2.2-.3.2-3.3-.8-4.7-.7-14.5.8-28.2,9.9-33.4,23.6-10.5,28,13.8,55.8,42.7,49,5.8,14.2,15,27,25.7,37.9,1.4,1.4,9.6,7.8,9.9,8.5,1.2,2.6-9.1,9.3-11.3,11.2-3.5,3.2-7.3,7-10.5,10.5-1.3,1.4-5.4,7.4-6.3,7.9-2.6,1.4-15.2-7-14.2-10.4.4-1.4,7.7-5.2,9.3-6.5,5.6-4.5,7.1-11.3,4.5-18-2.3-5.7-13.4-11.1-18.4-16.1-6.5-6.6-9.7-17.9-19.9-19-7-.8-8.1,4.9-12.9-3.5-7.2-12.6,1.7-20-2.3-32.1-1.6-4.9-4.8-7.6-5.3-13.4-.8-9.7,2.4-11.3,5.1-18.9,3.7-10.5-1.9-15.3-.2-24.9,1.5-8.8,8.9-12.1,12-19.4,2.9-6.9.9-13,4-20,4-9.2,10.9-9,16.2-15.3,6-7.2,4.5-16.1,13.2-22.7,3.8-2.9,17.6-10.7,15.3-17.7-2.8-8.6-24.5,9.7-27.7,13.5-5.5,6.4-5.8,14.7-9.3,19.1-1.8,2.3-7.7,4.9-10.5,7.5-11.8,10.8-8.3,17.6-11.6,30.3-.8,3.2-6.4,7.5-8.5,11-7.3,11.7-4.4,17.2-3.2,29.1.8,7.8-7.8,16.2-6.7,29.1.7,7.4,5.9,13,6.7,18,.6,4.3-2.1,10.4-2.1,15,0,10.2,5.1,18.3,11.1,26-.2,1.9-7.4,9.4-9.2,11-6.8,6-17.7,9.4-16.9,20.5.8,10.2,11.9,13.7,18.4,19.8,8.8,8.5,12.5,24.2,27.8,19.7,6.6-2,8.1-8.5,12.6-12.9,4.1,4.9,9.1,9.4,15.3,11.2-7,14.4-18,31.5-14.8,48.1,2.7,13.9,14.1,24.1,27.5,27.5h199.1c7.6-2.3,14.2-5.5,19.5-11.6,18-20.7,3.5-43.7-6.8-64,7.6-2.4,13.8-8.1,17.6-15,2.8-5.2,3.2-11.4,7.9-15.3,8.2-6.7,14.1-9.1,17.5-20.7,1.5-5.2.9-11.7,2.2-15.8,1.5-5,10.5-10.5,12.8-20.9,2-9.2-2.1-16.3-1.1-22.8.5-3,4-7.8,5.2-11.3,2.5-7.8,2-15.4-.9-23-1.9-5-4.9-6.7-4.2-12.8,1.2-11.9,4.1-17.4-3.2-29.1-2.1-3.4-7.7-7.7-8.5-11-.3-1.2-1.8-13.7-1.7-14.5.3-2.1,8.4-12.4,10.3-14.4ZM313.6,161.7c35,3.9,29.6,52.8-5.2,50.1,5.2-16.1,7.5-33.4,5.2-50.1ZM69.6,161.7c-2.4,16.7.2,34.1,5.2,50.1-34.9,2.8-40.2-46.3-5.2-50.1ZM64,279.9c-2.4,2.1-5.8,5.5-7.8,7.9-2.2,2.6-6.8,11-9.5,11.4-2.5.3-6.6-7.6-8.5-9.9-3.5-4.3-7.7-8.5-12-11.9-3.5-2.8-12.4-5.5-7.5-10.6,2.3-2.4,8.5-5.7,11.7-8.5,1.8-1.7,3.9-3.8,5.6-5.7,2.1-2.3,7.2-10.6,8.6-11.6,4.6-3.3,7.6,5.4,9.9,8.2,5.7,7.2,13.1,13.5,21,18.2,3.4,3.9-8.4,9.9-11.4,12.5ZM106.7,244.8c-16.5-19.2-29.2-51.8-26.5-77.4,1-9.4,4.2-9.6,8.9-15.8,4.8-6.5,8.2-12,11.1-19.6,3.1-8.3,2-16.3,13.5-18,16.9-2.4,23.7,6.6,37.3,12.4,25.3,10.8,56.1,10.9,81.4,0,13-5.6,21.4-15.2,37.4-12.4,10,1.7,9.7,10.8,12.5,18.2,4.7,12.3,8.2,14.5,15.7,24,7,8.8,5.7,19.2,4.4,29.8-11.4,96.5-132.2,132.8-195.7,58.9ZM226,291.2c-4.5,11.5-19.3,17.3-31,18-14.1.8-31.3-4-37.8-17.6l24.3,4.1c15.2.7,29.8-.5,44.5-4.5ZM291.2,371.7c-63.8,2.5-128.1.3-192.1,1.1-16.5-1-26.3-13.8-22.4-30,5.1-21.2,21.1-41.6,36.7-56.2,4.6,48.5,54.9,72,99.2,61.8,5.2-1.2,15.4-3,13.1-10.1-2.3-7.2-11.3-2-16.1-1.1-35.7,7-81.1-9.2-84.5-50.2-.1-1.8-.7-9.7,1.1-10,1-.2,14.6,8.9,17.4,9.1,8.2,46.4,87.9,46.5,96.1,0,2.9-.2,16.5-9.2,17.5-9.1,1.6,0,1.2,7.7,1.1,9.3-1.2,16.1-10.5,30.3-23.2,39.7-3.4,5,1.7,11.1,7.3,8.8,3.6-1.5,12.9-11.7,15.5-15.2,6.9-9.5,11.1-21.2,12-32.9,12.6,11.7,23.8,25.2,31,40.9,8.1,17.5,12.2,35.2-9.6,44.1ZM338.9,88.1c-3.8,3.3-9.9-8.4-12.5-11.4-2.1-2.4-5.5-5.7-7.9-7.8-2.3-2-11.2-7.2-11.4-9.5-.2-2.7,7.2-6.3,9.5-8.2,4.3-3.5,8.9-8,12.4-12.3,2.8-3.5,5.5-12.4,10.6-7.5,2.4,2.3,5.7,8.5,8.5,11.7,1.7,1.8,3.8,4,5.7,5.6,2.9,2.5,8.8,5.7,10.9,7.8,4.8,5-4.1,7.9-7.9,10.9-7.2,5.8-13.1,12.8-17.8,20.7Z"/>
  <path class="st0" d="M347.9,224.8c-2.4,4.2-7.2,7.1-9.2,11.7-3.3,7.4-.4,14.5-4.8,22.1-4.4,7.4-12.3,9-16.8,15.4-4,5.7-3.5,12.9-9.1,18.6-1.7,1.7-9.5,6.8-11.5,5.7-.9-.5-5-6.5-6.3-7.9-3.2-3.5-7-7.3-10.5-10.5-1.7-1.6-12.8-9.3-11.6-11.1,15.8-11.4,28.4-28.5,35.9-46.5,29.7,7,54.5-23,41.8-51.2-6.5-14.4-22.5-22.8-38.1-21-3-4.3-7.1-7.3-9.9-11.9-8-12.9-5.3-30-23.3-35.1-23-6.5-37.1,10.6-57.4,16.2-19.2,5.3-40.2,4.5-58.8-2.6-17.7-6.8-27.2-19.1-49-13.9-19.2,4.6-16.5,21-24.5,34.6-2.7,4.7-5.2,6.9-8.8,10.7-.6.6-1.1,2.1-1.2,2.2-.3.2-3.3-.8-4.7-.7-14.5.8-28.2,9.9-33.4,23.6-10.5,28,13.8,55.8,42.7,49,5.8,14.2,15,27,25.7,37.9,1.4,1.4,9.6,7.8,9.9,8.5,1.2,2.6-9.1,9.3-11.3,11.2-3.5,3.2-7.3,7-10.5,10.5-1.3,1.4-5.4,7.4-6.3,7.9-2.6,1.4-15.2-7-14.2-10.4.4-1.4,7.7-5.2,9.3-6.5,5.6-4.5,7.1-11.3,4.5-18-2.3-5.7-13.4-11.1-18.4-16.1-6.5-6.6-9.7-17.9-19.9-19-7-.8-8.1,4.9-12.9-3.5-7.2-12.6,1.7-20-2.3-32.1-1.6-4.9-4.8-7.6-5.3-13.4-.8-9.7,2.4-11.3,5.1-18.9,3.7-10.5-1.9-15.3-.2-24.9,1.5-8.8,8.9-12.1,12-19.4,2.9-6.9.9-13,4-20,4-9.2,10.9-9,16.2-15.3,6-7.2,4.5-16.1,13.2-22.7,3.8-2.9,17.6-10.7,15.3-17.7,1.4,4.5,11.1-3.1,15.3-5.6,7.9-4.8,14.6-2.1,22.5-5.2,7.1-2.8,10.4-10.4,18.7-12,8-1.5,14.8,2.2,22.8,1.1,6.1-.8,11.4-6.6,18.8-6.7,7.9-.1,13.1,5.8,19.5,6.7,8,1.1,14.8-2.6,22.8-1.1,8.3,1.6,11.6,9.2,18.7,12,5.6,2.2,10.2,1.3,15.6,2.4,15.3,3.1,13.7,19.4,28.6,22-4.4,14,6.5,16.9,14.6,23.9,7.2,6.2,13.8,19.3,21.3,22.1,2.9,1.1,4-1.2,4.5,3.7,1.4,14.7,1.2,11.2,9.3,22.2,10.4,14-.3,21.4,4.3,34.6,1.8,5,4.6,7.6,5.1,13.6.8,10.1-2.7,11-5.3,18.7-4,12.1,4.8,19.5-2.3,32.1Z"/>
  <path class="st0" d="M356.7,67.4c-7.2,5.8-13.1,12.8-17.8,20.7-3.8,3.3-9.9-8.4-12.5-11.4-2.1-2.4-5.5-5.7-7.9-7.8-2.3-2-11.2-7.2-11.4-9.5-.2-2.7,7.2-6.3,9.5-8.2,4.3-3.5,8.9-8,12.4-12.3,2.8-3.5,5.5-12.4,10.6-7.5,2.4,2.3,5.7,8.5,8.5,11.7,1.7,1.8,3.8,4,5.7,5.6,2.9,2.5,8.8,5.7,10.9,7.8,4.8,5-4.1,7.9-7.9,10.9Z"/>
  <path class="st0" d="M308.4,211.8c5.2-16.1,7.5-33.4,5.2-50.1,35,3.9,29.6,52.8-5.2,50.1Z"/>
  <path class="st0" d="M226,291.2c-4.5,11.5-19.3,17.3-31,18-14.1.8-31.3-4-37.8-17.6l24.3,4.1c15.2.7,29.8-.5,44.5-4.5Z"/>
  <path class="st0" d="M291.2,371.7c-63.8,2.5-128.1.3-192.1,1.1-16.5-1-26.3-13.8-22.4-30,5.1-21.2,21.1-41.6,36.7-56.2,4.6,48.5,54.9,72,99.2,61.8,5.2-1.2,15.4-3,13.1-10.1-2.3-7.2-11.3-2-16.1-1.1-35.7,7-81.1-9.2-84.5-50.2-.1-1.8-.7-9.7,1.1-10,1-.2,14.6,8.9,17.4,9.1,8.2,46.4,87.9,46.5,96.1,0,2.9-.2,16.5-9.2,17.5-9.1,1.6,0,1.2,7.7,1.1,9.3-1.2,16.1-10.5,30.3-23.2,39.7-3.4,5,1.7,11.1,7.3,8.8,3.6-1.5,12.9-11.7,15.5-15.2,6.9-9.5,11.1-21.2,12-32.9,12.6,11.7,23.8,25.2,31,40.9,8.1,17.5,12.2,35.2-9.6,44.1Z"/>
  <path class="st0" d="M64,279.9c-2.4,2.1-5.8,5.5-7.8,7.9-2.2,2.6-6.8,11-9.5,11.4-2.5.3-6.6-7.6-8.5-9.9-3.5-4.3-7.7-8.5-12-11.9-3.5-2.8-12.4-5.5-7.5-10.6,2.3-2.4,8.5-5.7,11.7-8.5,1.8-1.7,3.9-3.8,5.6-5.7,2.1-2.3,7.2-10.6,8.6-11.6,4.6-3.3,7.6,5.4,9.9,8.2,5.7,7.2,13.1,13.5,21,18.2,3.4,3.9-8.4,9.9-11.4,12.5Z"/>
  <path class="st0" d="M74.8,211.8c-34.9,2.8-40.2-46.3-5.2-50.1-2.4,16.7.2,34.1,5.2,50.1Z"/>
  <path class="st0" d="M297.9,156.1c-7.5-9.4-11.1-11.7-15.7-24-2.8-7.4-2.5-16.5-12.5-18.2-15.9-2.7-24.4,6.8-37.4,12.4-25.3,10.9-56.1,10.8-81.4,0-13.7-5.9-20.5-14.9-37.3-12.4-11.5,1.7-10.4,9.7-13.5,18-2.9,7.6-6.2,13.2-11.1,19.6-4.7,6.2-7.9,6.4-8.9,15.8-2.7,25.6,9.9,58.2,26.5,77.4,63.5,73.9,184.2,37.6,195.7-58.9,1.3-10.6,2.6-21-4.4-29.8ZM153.1,187.1c-5.3,4.9-14.7,5.1-20.5,1.1-4.7-3.3-6.6-10.8-.2-12.2,5.5-1.2,6.6,3.8,10.2,3.6,2.5-.2,3.7-2.8,5.6-3.4,6.8-2.2,10.4,5.8,4.9,10.9ZM193.4,201.3c-6.7.6-22.1-5.3-19.6-13.6.3-.9,2.5-3.1,3.4-3.4,6.8-2,9.4,8.7,19.1,4.2,3.2-1.5,4.1-5.3,9.1-4.3,1.1.2,3.3,2,3.8,3,3.1,7.4-9.8,13.6-15.8,14.1ZM253,186.1c-7.9,9.1-28.6,4.3-25.3-6.6.3-.9,2.5-3.1,3.4-3.4,4.8-1.5,6.6,3.6,10.3,3.5,2.4,0,3.6-2.7,5.6-3.3,6.5-2.1,10.7,4.5,6.1,9.8Z"/>
</svg>