<?xml version="1.0" encoding="UTF-8"?>
<svg id="Camada_1" xmlns="http://www.w3.org/2000/svg" version="1.1" viewBox="0 0 384 384">
  <!-- Generator: Adobe Illustrator 29.4.0, SVG Export Plug-In . SVG Version: 2.1.0 Build 152)  -->
  <defs>
    <style>
      .st0 {
        fill: #fff;
      }
    </style>
  </defs>
  <path class="st0" d="M324.8,297.8c13.6-20.1,24-51.5.8-68.8,13.3-19.5,22.9-51.2-.3-67.3,13.7-18.7,16.1-38,14.5-61C335.8,45.2,298.5,1.7,241.1.4c-34.8-.1-69.7-.1-104.5,0C89.5,3.2,51.6,41.3,45.1,87.4c-3.6,25.9-3.5,52.6,12.9,74.3-23.1,16.1-13.6,47.7-.3,67.3-23.2,17.4-12.8,48.7.8,68.8-13.4,10.3-14.8,21.8-14.8,37.9,0,12.9,0,26.9.5,39.7.2,4.4,4.8,8.3,8.9,8.5h12c10.4-2.5,19.9-6.5,28-13.5,20-17.3,30.6-54.9,4.9-72.2,13.6-19.3,25.7-53.1.8-68.5,13.1-19.2,24.5-52.3,0-67.4,9.2-15,17.3-31.1,13.5-49.4h21.3c16,0,39.9-15.1,50.2-26.9l8.2-10.5c10.3,16.9,27.4,29.9,46.6,35,2.3.6,9.2,2.5,11,2.5h21.3c-3.9,18.2,4.2,34.4,13.5,49.4-8,3.5-13.2,13.8-14.1,22.2-1.9,17.1,5.7,31.2,14.1,45.2-8,3.6-13.2,13.8-14.1,22.2-1.9,17.4,6,32.1,14.9,46.3-25.4,17.1-15.4,53.9,4.1,71.5,8.2,7.4,18.1,11.7,28.8,14.2h12c4.2-.3,8.8-4.2,8.9-8.5.5-13.4.6-28,.5-41.5-.1-15.5-2-26.3-14.8-36.2ZM69.1,185.5c.2-.8,1-3,1.5-3.4,2.5-2,15-2,17.6,0,3.5,2.7,2,12.8.9,16.6-1.1,3.8-6.4,15.2-8.9,17.9-.5.6-1.2.8-1.5.5-4.6-9.8-13-20.1-9.5-31.6ZM69.1,118.1c.2-.8,1-3,1.5-3.4,2.5-2,15-2,17.6,0,3.5,2.7,2,12.8.9,16.6-1.1,3.8-6.4,15.2-8.9,17.9-.5.6-1.2.8-1.5.5-4.6-9.8-13-20.1-9.5-31.6ZM69.1,252.8c.2-.8,1-3,1.5-3.4,2.5-2,15-2,17.6,0,3.5,2.7,2,12.8.9,16.6-1.1,3.8-6.4,15.2-8.9,17.9-.5.6-1.2.8-1.5.5-4.6-9.8-13-20.1-9.5-31.6ZM68.1,359.3v-34.1c0-2.3,2.9-6.5,4.9-7.9,7.7-5.3,17.4.4,17.6,9.4.3,13.1-10.1,28.1-22.5,32.5ZM180.4,37.8c0,8.9-5.5,21.9-10.6,29.1-24.4,34.3-65.1,20.8-100.9,24.1,4.4-29,25.2-54.6,53.2-63.6,18.9-6.1,38.8-3.7,58.4-4.1v14.6ZM313.6,198.7c-1.1,3.8-6.4,15.2-8.9,17.9-.5.6-1.2.8-1.5.5-4.6-9.8-13-20.1-9.5-31.6.2-.8,1-3,1.5-3.4,2.5-2,15-2,17.6,0,3.5,2.7,2,12.8.9,16.6ZM313.6,266.1c-1.1,3.8-6.4,15.2-8.9,17.9-.5.6-1.2.8-1.5.5-4.6-9.8-13-20.1-9.5-31.6.2-.8,1-3,1.5-3.4,2.5-2,15-2,17.6,0,3.5,2.7,2,12.8.9,16.6ZM313.6,131.3c-1.1,3.8-6.4,15.2-8.9,17.9-.5.6-1.2.8-1.5.5-4.6-9.8-13-20.1-9.5-31.6.2-.8,1-3,1.5-3.4,2.5-2,15-2,17.6,0,3.5,2.7,2,12.8.9,16.6ZM213.5,66.9c-5.1-7.2-10.6-20.2-10.6-29.1v-14.6c14.6.6,30-1.2,44.5.8,34.7,4.8,61.8,32.6,67.1,66.9-35.9-3.3-76.5,10.2-100.9-24.1ZM315.1,359.3c-12.5-4.6-22.8-19.2-22.5-32.5.2-9,9.9-14.7,17.6-9.4,1.9,1.3,4.9,5.6,4.9,7.9v34.1Z"/>
  <path d="M313.6,198.7c-1.1,3.8-6.4,15.2-8.9,17.9-.5.6-1.2.8-1.5.5-4.6-9.8-13-20.1-9.5-31.6.2-.8,1-3,1.5-3.4,2.5-2,15-2,17.6,0,3.5,2.7,2,12.8.9,16.6Z"/>
  <path d="M313.6,131.3c-1.1,3.8-6.4,15.2-8.9,17.9-.5.6-1.2.8-1.5.5-4.6-9.8-13-20.1-9.5-31.6.2-.8,1-3,1.5-3.4,2.5-2,15-2,17.6,0,3.5,2.7,2,12.8.9,16.6Z"/>
  <path d="M313.6,266.1c-1.1,3.8-6.4,15.2-8.9,17.9-.5.6-1.2.8-1.5.5-4.6-9.8-13-20.1-9.5-31.6.2-.8,1-3,1.5-3.4,2.5-2,15-2,17.6,0,3.5,2.7,2,12.8.9,16.6Z"/>
  <path d="M315.1,325.2v34.1c-12.5-4.6-22.8-19.2-22.5-32.5.2-9,9.9-14.7,17.6-9.4,1.9,1.3,4.9,5.6,4.9,7.9Z"/>
  <path d="M90.6,326.8c.3,13.1-10.1,28.1-22.5,32.5v-34.1c0-2.3,2.9-6.5,4.9-7.9,7.7-5.3,17.4.4,17.6,9.4Z"/>
  <path d="M89,266.1c-1.1,3.8-6.4,15.2-8.9,17.9-.5.6-1.2.8-1.5.5-4.6-9.8-13-20.1-9.5-31.6.2-.8,1-3,1.5-3.4,2.5-2,15-2,17.6,0,3.5,2.7,2,12.8.9,16.6Z"/>
  <path d="M89,198.7c-1.1,3.8-6.4,15.2-8.9,17.9-.5.6-1.2.8-1.5.5-4.6-9.8-13-20.1-9.5-31.6.2-.8,1-3,1.5-3.4,2.5-2,15-2,17.6,0,3.5,2.7,2,12.8.9,16.6Z"/>
  <path d="M89,131.3c-1.1,3.8-6.4,15.2-8.9,17.9-.5.6-1.2.8-1.5.5-4.6-9.8-13-20.1-9.5-31.6.2-.8,1-3,1.5-3.4,2.5-2,15-2,17.6,0,3.5,2.7,2,12.8.9,16.6Z"/>
  <path d="M314.4,90.9c-35.9-3.3-76.5,10.2-100.9-24.1-5.1-7.2-10.6-20.2-10.6-29.1v-14.6c14.6.6,30-1.2,44.5.8,34.7,4.8,61.8,32.6,67.1,66.9Z"/>
  <path d="M180.4,23.2v14.6c0,8.9-5.5,21.9-10.6,29.1-24.4,34.3-65.1,20.8-100.9,24.1,4.4-29,25.2-54.6,53.2-63.6,18.9-6.1,38.8-3.7,58.4-4.1Z"/>
</svg>